<mxfile host="app.diagrams.net" modified="2020-12-15T05:15:44.261Z" agent="5.0 (Windows)" etag="hs4VoX9DD6MmyFpOUmrx" version="14.0.1" type="github" pages="6">
  <diagram name="シーケンス図（定期実行）" id="13e1069c-82ec-6db2-03f1-153e76fe0fe0">
    <mxGraphModel dx="684" dy="537" grid="1" gridSize="10" guides="1" tooltips="1" connect="1" arrows="1" fold="1" page="1" pageScale="1" pageWidth="1100" pageHeight="850" background="#ffffff" math="0" shadow="0">
      <root>
        <mxCell id="0" />
        <mxCell id="1" parent="0" />
        <mxCell id="7baba1c4bc27f4b0-2" value=":Object" style="shape=umlLifeline;perimeter=lifelinePerimeter;whiteSpace=wrap;html=1;container=1;collapsible=0;recursiveResize=0;outlineConnect=0;rounded=1;shadow=0;comic=0;labelBackgroundColor=none;strokeWidth=1;fontFamily=Verdana;fontSize=12;align=center;" parent="1" vertex="1">
          <mxGeometry x="240" y="80" width="100" height="580" as="geometry" />
        </mxCell>
        <mxCell id="7baba1c4bc27f4b0-10" value="" style="html=1;points=[];perimeter=orthogonalPerimeter;rounded=0;shadow=0;comic=0;labelBackgroundColor=none;strokeWidth=1;fontFamily=Verdana;fontSize=12;align=center;" parent="7baba1c4bc27f4b0-2" vertex="1">
          <mxGeometry x="45" y="90" width="10" height="30" as="geometry" />
        </mxCell>
        <mxCell id="7baba1c4bc27f4b0-37" value="" style="html=1;points=[];perimeter=orthogonalPerimeter;rounded=0;shadow=0;comic=0;labelBackgroundColor=none;strokeWidth=1;fontFamily=Verdana;fontSize=12;align=center;" parent="7baba1c4bc27f4b0-2" vertex="1">
          <mxGeometry x="45" y="295" width="10" height="30" as="geometry" />
        </mxCell>
        <mxCell id="7baba1c4bc27f4b0-3" value=":Object" style="shape=umlLifeline;perimeter=lifelinePerimeter;whiteSpace=wrap;html=1;container=1;collapsible=0;recursiveResize=0;outlineConnect=0;rounded=1;shadow=0;comic=0;labelBackgroundColor=none;strokeWidth=1;fontFamily=Verdana;fontSize=12;align=center;" parent="1" vertex="1">
          <mxGeometry x="400" y="80" width="100" height="580" as="geometry" />
        </mxCell>
        <mxCell id="7baba1c4bc27f4b0-13" value="" style="html=1;points=[];perimeter=orthogonalPerimeter;rounded=0;shadow=0;comic=0;labelBackgroundColor=none;strokeWidth=1;fontFamily=Verdana;fontSize=12;align=center;" parent="7baba1c4bc27f4b0-3" vertex="1">
          <mxGeometry x="45" y="100" width="10" height="180" as="geometry" />
        </mxCell>
        <mxCell id="7baba1c4bc27f4b0-4" value=":Object" style="shape=umlLifeline;perimeter=lifelinePerimeter;whiteSpace=wrap;html=1;container=1;collapsible=0;recursiveResize=0;outlineConnect=0;rounded=1;shadow=0;comic=0;labelBackgroundColor=none;strokeWidth=1;fontFamily=Verdana;fontSize=12;align=center;" parent="1" vertex="1">
          <mxGeometry x="540" y="80" width="100" height="580" as="geometry" />
        </mxCell>
        <mxCell id="7baba1c4bc27f4b0-5" value=":Object" style="shape=umlLifeline;perimeter=lifelinePerimeter;whiteSpace=wrap;html=1;container=1;collapsible=0;recursiveResize=0;outlineConnect=0;rounded=1;shadow=0;comic=0;labelBackgroundColor=none;strokeWidth=1;fontFamily=Verdana;fontSize=12;align=center;" parent="1" vertex="1">
          <mxGeometry x="680" y="80" width="100" height="580" as="geometry" />
        </mxCell>
        <mxCell id="7baba1c4bc27f4b0-6" value=":Object" style="shape=umlLifeline;perimeter=lifelinePerimeter;whiteSpace=wrap;html=1;container=1;collapsible=0;recursiveResize=0;outlineConnect=0;rounded=1;shadow=0;comic=0;labelBackgroundColor=none;strokeWidth=1;fontFamily=Verdana;fontSize=12;align=center;" parent="1" vertex="1">
          <mxGeometry x="820" y="80" width="100" height="580" as="geometry" />
        </mxCell>
        <mxCell id="HY1Ta8MhCHpQZ7dJACeX-5" value="" style="html=1;points=[];perimeter=orthogonalPerimeter;rounded=0;shadow=0;comic=0;labelBackgroundColor=none;strokeWidth=1;fontFamily=Verdana;fontSize=12;align=center;" parent="7baba1c4bc27f4b0-6" vertex="1">
          <mxGeometry x="45" y="255" width="10" height="40" as="geometry" />
        </mxCell>
        <mxCell id="HY1Ta8MhCHpQZ7dJACeX-6" value="" style="html=1;points=[];perimeter=orthogonalPerimeter;rounded=0;shadow=0;comic=0;labelBackgroundColor=none;strokeWidth=1;fontFamily=Verdana;fontSize=12;align=center;" parent="7baba1c4bc27f4b0-6" vertex="1">
          <mxGeometry x="45" y="330" width="10" height="140" as="geometry" />
        </mxCell>
        <mxCell id="7baba1c4bc27f4b0-8" value=":Object" style="shape=umlLifeline;perimeter=lifelinePerimeter;whiteSpace=wrap;html=1;container=1;collapsible=0;recursiveResize=0;outlineConnect=0;rounded=1;shadow=0;comic=0;labelBackgroundColor=none;strokeWidth=1;fontFamily=Verdana;fontSize=12;align=center;" parent="1" vertex="1">
          <mxGeometry x="100" y="80" width="100" height="580" as="geometry" />
        </mxCell>
        <mxCell id="7baba1c4bc27f4b0-9" value="" style="html=1;points=[];perimeter=orthogonalPerimeter;rounded=0;shadow=0;comic=0;labelBackgroundColor=none;strokeWidth=1;fontFamily=Verdana;fontSize=12;align=center;" parent="7baba1c4bc27f4b0-8" vertex="1">
          <mxGeometry x="45" y="470" width="10" height="40" as="geometry" />
        </mxCell>
        <mxCell id="7baba1c4bc27f4b0-16" value="" style="html=1;points=[];perimeter=orthogonalPerimeter;rounded=0;shadow=0;comic=0;labelBackgroundColor=none;strokeWidth=1;fontFamily=Verdana;fontSize=12;align=center;" parent="1" vertex="1">
          <mxGeometry x="585" y="200" width="10" height="120" as="geometry" />
        </mxCell>
        <mxCell id="7baba1c4bc27f4b0-17" value="レコード抽出" style="html=1;verticalAlign=bottom;endArrow=block;labelBackgroundColor=none;fontFamily=Verdana;fontSize=12;edgeStyle=elbowEdgeStyle;elbow=vertical;" parent="1" edge="1">
          <mxGeometry relative="1" as="geometry">
            <mxPoint x="455" y="206" as="sourcePoint" />
            <Array as="points">
              <mxPoint x="460" y="206" />
            </Array>
            <mxPoint x="585" y="206" as="targetPoint" />
          </mxGeometry>
        </mxCell>
        <mxCell id="7baba1c4bc27f4b0-19" value="" style="html=1;points=[];perimeter=orthogonalPerimeter;rounded=0;shadow=0;comic=0;labelBackgroundColor=none;strokeWidth=1;fontFamily=Verdana;fontSize=12;align=center;" parent="1" vertex="1">
          <mxGeometry x="725" y="380" width="10" height="210" as="geometry" />
        </mxCell>
        <mxCell id="7baba1c4bc27f4b0-21" value="return" style="html=1;verticalAlign=bottom;endArrow=open;dashed=1;endSize=8;labelBackgroundColor=none;fontFamily=Verdana;fontSize=12;edgeStyle=elbowEdgeStyle;elbow=vertical;" parent="1" edge="1">
          <mxGeometry relative="1" as="geometry">
            <mxPoint x="455" y="310" as="targetPoint" />
            <Array as="points">
              <mxPoint x="530" y="310" />
              <mxPoint x="530" y="300" />
              <mxPoint x="560" y="300" />
            </Array>
            <mxPoint x="585" y="310" as="sourcePoint" />
          </mxGeometry>
        </mxCell>
        <mxCell id="7baba1c4bc27f4b0-14" value="0:00定期実行" style="html=1;verticalAlign=bottom;endArrow=block;entryX=0;entryY=0;labelBackgroundColor=none;fontFamily=Verdana;fontSize=12;edgeStyle=elbowEdgeStyle;elbow=vertical;" parent="1" edge="1">
          <mxGeometry relative="1" as="geometry">
            <mxPoint x="295" y="186.33333333333337" as="sourcePoint" />
            <mxPoint x="445" y="186.00000000000034" as="targetPoint" />
          </mxGeometry>
        </mxCell>
        <mxCell id="7baba1c4bc27f4b0-41" value="&lt;div&gt;顧客情報&lt;br&gt;&lt;/div&gt;&lt;div&gt;テーブル&lt;/div&gt;" style="shape=note;whiteSpace=wrap;html=1;size=14;verticalAlign=top;align=left;spacingTop=-6;rounded=0;shadow=0;comic=0;labelBackgroundColor=none;strokeWidth=1;fontFamily=Verdana;fontSize=12" parent="1" vertex="1">
          <mxGeometry x="540" y="30" width="100" height="35" as="geometry" />
        </mxCell>
        <mxCell id="7baba1c4bc27f4b0-42" value="G3証明書検索&lt;br&gt;システム" style="shape=note;whiteSpace=wrap;html=1;size=14;verticalAlign=top;align=left;spacingTop=-6;rounded=0;shadow=0;comic=0;labelBackgroundColor=none;strokeWidth=1;fontFamily=Verdana;fontSize=12" parent="1" vertex="1">
          <mxGeometry x="400" y="30" width="100" height="35" as="geometry" />
        </mxCell>
        <mxCell id="7baba1c4bc27f4b0-43" value="&lt;div&gt;メール送信&lt;/div&gt;&lt;div&gt;システム&lt;br&gt;&lt;/div&gt;" style="shape=note;whiteSpace=wrap;html=1;size=14;verticalAlign=top;align=left;spacingTop=-6;rounded=0;shadow=0;comic=0;labelBackgroundColor=none;strokeWidth=1;fontFamily=Verdana;fontSize=12" parent="1" vertex="1">
          <mxGeometry x="680" y="30" width="100" height="35" as="geometry" />
        </mxCell>
        <mxCell id="7baba1c4bc27f4b0-44" value="定期実行&lt;br&gt;cron" style="shape=note;whiteSpace=wrap;html=1;size=14;verticalAlign=top;align=left;spacingTop=-6;rounded=0;shadow=0;comic=0;labelBackgroundColor=none;strokeWidth=1;fontFamily=Verdana;fontSize=12" parent="1" vertex="1">
          <mxGeometry x="240" y="30" width="100" height="35" as="geometry" />
        </mxCell>
        <mxCell id="7baba1c4bc27f4b0-45" value="ログファイル&lt;br&gt;保管フォルダ" style="shape=note;whiteSpace=wrap;html=1;size=14;verticalAlign=top;align=left;spacingTop=-6;rounded=0;shadow=0;comic=0;labelBackgroundColor=none;strokeWidth=1;fontFamily=Verdana;fontSize=12" parent="1" vertex="1">
          <mxGeometry x="825" y="30" width="100" height="35" as="geometry" />
        </mxCell>
        <mxCell id="HY1Ta8MhCHpQZ7dJACeX-1" value="&lt;div&gt;証明書種別が&lt;/div&gt;&lt;div&gt;G3, エラーとなっているレコード&lt;/div&gt;" style="shape=note2;boundedLbl=1;whiteSpace=wrap;html=1;size=14;verticalAlign=top;align=center;" parent="1" vertex="1">
          <mxGeometry x="470" y="220" width="100" height="70" as="geometry" />
        </mxCell>
        <mxCell id="HY1Ta8MhCHpQZ7dJACeX-2" value="メール送信要求" style="html=1;verticalAlign=bottom;endArrow=block;labelBackgroundColor=none;fontFamily=Verdana;fontSize=12;edgeStyle=elbowEdgeStyle;elbow=vertical;" parent="1" target="7baba1c4bc27f4b0-19" edge="1">
          <mxGeometry relative="1" as="geometry">
            <mxPoint x="296" y="390.00333333333333" as="sourcePoint" />
            <mxPoint x="556" y="390" as="targetPoint" />
          </mxGeometry>
        </mxCell>
        <mxCell id="HY1Ta8MhCHpQZ7dJACeX-3" value="メールの送信" style="html=1;verticalAlign=bottom;endArrow=open;endSize=8;" parent="1" target="7baba1c4bc27f4b0-9" edge="1">
          <mxGeometry relative="1" as="geometry">
            <mxPoint x="725" y="568" as="sourcePoint" />
            <mxPoint x="149.83333333333337" y="568" as="targetPoint" />
          </mxGeometry>
        </mxCell>
        <mxCell id="HY1Ta8MhCHpQZ7dJACeX-4" value="ログファイル出力" style="html=1;verticalAlign=bottom;endArrow=block;labelBackgroundColor=none;fontFamily=Verdana;fontSize=12;edgeStyle=elbowEdgeStyle;elbow=vertical;" parent="1" source="7baba1c4bc27f4b0-13" target="HY1Ta8MhCHpQZ7dJACeX-5" edge="1">
          <mxGeometry relative="1" as="geometry">
            <mxPoint x="457" y="350" as="sourcePoint" />
            <mxPoint x="866.5" y="350.33333333333337" as="targetPoint" />
            <Array as="points">
              <mxPoint x="680" y="350" />
            </Array>
          </mxGeometry>
        </mxCell>
        <mxCell id="HY1Ta8MhCHpQZ7dJACeX-7" value="ログファイル取得" style="html=1;verticalAlign=bottom;endArrow=block;labelBackgroundColor=none;fontFamily=Verdana;fontSize=12;edgeStyle=elbowEdgeStyle;elbow=vertical;" parent="1" edge="1">
          <mxGeometry relative="1" as="geometry">
            <mxPoint x="735" y="422.33333333333337" as="sourcePoint" />
            <mxPoint x="865" y="422.33333333333337" as="targetPoint" />
          </mxGeometry>
        </mxCell>
        <mxCell id="HY1Ta8MhCHpQZ7dJACeX-8" value="return" style="html=1;verticalAlign=bottom;endArrow=open;dashed=1;endSize=8;labelBackgroundColor=none;fontFamily=Verdana;fontSize=12;edgeStyle=elbowEdgeStyle;elbow=vertical;" parent="1" source="HY1Ta8MhCHpQZ7dJACeX-6" target="7baba1c4bc27f4b0-19" edge="1">
          <mxGeometry relative="1" as="geometry">
            <mxPoint x="730" y="540" as="targetPoint" />
            <Array as="points">
              <mxPoint x="815" y="540" />
              <mxPoint x="815" y="530" />
              <mxPoint x="845" y="530" />
            </Array>
            <mxPoint x="870" y="540" as="sourcePoint" />
          </mxGeometry>
        </mxCell>
        <mxCell id="HY1Ta8MhCHpQZ7dJACeX-9" value="&lt;div&gt;ログファイル&lt;/div&gt;&lt;div&gt;（正常終了、エラーの2種類）&lt;br&gt;&lt;/div&gt;" style="shape=note2;boundedLbl=1;whiteSpace=wrap;html=1;size=14;verticalAlign=top;align=center;" parent="1" vertex="1">
          <mxGeometry x="755" y="440" width="100" height="80" as="geometry" />
        </mxCell>
        <mxCell id="7baba1c4bc27f4b0-40" value="ユーザー" style="shape=note;whiteSpace=wrap;html=1;size=14;verticalAlign=top;align=left;spacingTop=-6;rounded=0;shadow=0;comic=0;labelBackgroundColor=none;strokeWidth=1;fontFamily=Verdana;fontSize=12" parent="1" vertex="1">
          <mxGeometry x="100" y="30" width="100" height="35" as="geometry" />
        </mxCell>
        <mxCell id="7ugP54rllSGBO8FwJjmD-1" value="&lt;div&gt;最終日のみ&lt;/div&gt;&lt;div&gt;全数検索&lt;br&gt;&lt;/div&gt;" style="rounded=0;whiteSpace=wrap;html=1;shadow=0;strokeColor=#000000;" vertex="1" parent="1">
          <mxGeometry x="735" y="680" width="120" height="60" as="geometry" />
        </mxCell>
      </root>
    </mxGraphModel>
  </diagram>
  <diagram id="m0Q9sx268DfUwjhK4s5F" name="シーケンス図（特定日検索）">
    <mxGraphModel dx="684" dy="537" grid="1" gridSize="10" guides="1" tooltips="1" connect="1" arrows="1" fold="1" page="1" pageScale="1" pageWidth="827" pageHeight="1169" math="0" shadow="0">
      <root>
        <mxCell id="Yc9LPZd54kfcNAisiiT4-0" />
        <mxCell id="Yc9LPZd54kfcNAisiiT4-1" parent="Yc9LPZd54kfcNAisiiT4-0" />
        <mxCell id="Yc9LPZd54kfcNAisiiT4-2" value=":Object" style="shape=umlLifeline;perimeter=lifelinePerimeter;whiteSpace=wrap;html=1;container=1;collapsible=0;recursiveResize=0;outlineConnect=0;rounded=1;shadow=0;comic=0;labelBackgroundColor=none;strokeWidth=1;fontFamily=Verdana;fontSize=12;align=center;" parent="Yc9LPZd54kfcNAisiiT4-1" vertex="1">
          <mxGeometry x="180" y="90" width="100" height="580" as="geometry" />
        </mxCell>
        <mxCell id="Yc9LPZd54kfcNAisiiT4-3" value="" style="html=1;points=[];perimeter=orthogonalPerimeter;rounded=0;shadow=0;comic=0;labelBackgroundColor=none;strokeWidth=1;fontFamily=Verdana;fontSize=12;align=center;" parent="Yc9LPZd54kfcNAisiiT4-2" vertex="1">
          <mxGeometry x="45" y="150" width="10" height="180" as="geometry" />
        </mxCell>
        <mxCell id="Yc9LPZd54kfcNAisiiT4-4" value="" style="html=1;points=[];perimeter=orthogonalPerimeter;rounded=0;shadow=0;comic=0;labelBackgroundColor=none;strokeWidth=1;fontFamily=Verdana;fontSize=12;align=center;" parent="Yc9LPZd54kfcNAisiiT4-2" vertex="1">
          <mxGeometry x="45" y="350" width="10" height="50" as="geometry" />
        </mxCell>
        <mxCell id="Yc9LPZd54kfcNAisiiT4-5" value="画面更新" style="html=1;verticalAlign=bottom;endArrow=block;" parent="Yc9LPZd54kfcNAisiiT4-2" source="Yc9LPZd54kfcNAisiiT4-4" target="Yc9LPZd54kfcNAisiiT4-4" edge="1">
          <mxGeometry x="0.3333" y="-35" width="80" relative="1" as="geometry">
            <mxPoint x="50" y="360" as="sourcePoint" />
            <mxPoint x="130" y="360" as="targetPoint" />
            <mxPoint x="35" y="35" as="offset" />
          </mxGeometry>
        </mxCell>
        <mxCell id="S--X-GX8cK5yYy1NVmtk-1" value="" style="html=1;points=[];perimeter=orthogonalPerimeter;rounded=0;shadow=0;comic=0;labelBackgroundColor=none;strokeWidth=1;fontFamily=Verdana;fontSize=12;align=center;" vertex="1" parent="Yc9LPZd54kfcNAisiiT4-2">
          <mxGeometry x="45" y="90" width="10" height="20" as="geometry" />
        </mxCell>
        <mxCell id="Yc9LPZd54kfcNAisiiT4-6" value=":Object" style="shape=umlLifeline;perimeter=lifelinePerimeter;whiteSpace=wrap;html=1;container=1;collapsible=0;recursiveResize=0;outlineConnect=0;rounded=1;shadow=0;comic=0;labelBackgroundColor=none;strokeWidth=1;fontFamily=Verdana;fontSize=12;align=center;" parent="Yc9LPZd54kfcNAisiiT4-1" vertex="1">
          <mxGeometry x="340" y="90" width="100" height="580" as="geometry" />
        </mxCell>
        <mxCell id="Yc9LPZd54kfcNAisiiT4-7" value="" style="html=1;points=[];perimeter=orthogonalPerimeter;rounded=0;shadow=0;comic=0;labelBackgroundColor=none;strokeWidth=1;fontFamily=Verdana;fontSize=12;align=center;" parent="Yc9LPZd54kfcNAisiiT4-6" vertex="1">
          <mxGeometry x="45" y="177.5" width="10" height="152.5" as="geometry" />
        </mxCell>
        <mxCell id="Yc9LPZd54kfcNAisiiT4-8" value=":Object" style="shape=umlLifeline;perimeter=lifelinePerimeter;whiteSpace=wrap;html=1;container=1;collapsible=0;recursiveResize=0;outlineConnect=0;rounded=1;shadow=0;comic=0;labelBackgroundColor=none;strokeWidth=1;fontFamily=Verdana;fontSize=12;align=center;" parent="Yc9LPZd54kfcNAisiiT4-1" vertex="1">
          <mxGeometry x="40" y="90" width="100" height="580" as="geometry" />
        </mxCell>
        <mxCell id="Yc9LPZd54kfcNAisiiT4-9" value="" style="html=1;points=[];perimeter=orthogonalPerimeter;rounded=0;shadow=0;comic=0;labelBackgroundColor=none;strokeWidth=1;fontFamily=Verdana;fontSize=12;align=center;" parent="Yc9LPZd54kfcNAisiiT4-8" vertex="1">
          <mxGeometry x="45" y="90" width="10" height="270" as="geometry" />
        </mxCell>
        <mxCell id="Yc9LPZd54kfcNAisiiT4-11" value="ユーザー" style="shape=note;whiteSpace=wrap;html=1;size=14;verticalAlign=top;align=left;spacingTop=-6;rounded=0;shadow=0;comic=0;labelBackgroundColor=none;strokeWidth=1;fontFamily=Verdana;fontSize=12" parent="Yc9LPZd54kfcNAisiiT4-1" vertex="1">
          <mxGeometry x="40" y="40" width="100" height="35" as="geometry" />
        </mxCell>
        <mxCell id="Yc9LPZd54kfcNAisiiT4-12" value="ログファイル&lt;br&gt;検索画面" style="shape=note;whiteSpace=wrap;html=1;size=14;verticalAlign=top;align=left;spacingTop=-6;rounded=0;shadow=0;comic=0;labelBackgroundColor=none;strokeWidth=1;fontFamily=Verdana;fontSize=12" parent="Yc9LPZd54kfcNAisiiT4-1" vertex="1">
          <mxGeometry x="180" y="40" width="100" height="35" as="geometry" />
        </mxCell>
        <mxCell id="Yc9LPZd54kfcNAisiiT4-13" value="ログファイル&lt;br&gt;保管フォルダ" style="shape=note;whiteSpace=wrap;html=1;size=14;verticalAlign=top;align=left;spacingTop=-6;rounded=0;shadow=0;comic=0;labelBackgroundColor=none;strokeWidth=1;fontFamily=Verdana;fontSize=12" parent="Yc9LPZd54kfcNAisiiT4-1" vertex="1">
          <mxGeometry x="340" y="40" width="100" height="35" as="geometry" />
        </mxCell>
        <mxCell id="Yc9LPZd54kfcNAisiiT4-14" value="対象ログファイル要求" style="html=1;verticalAlign=bottom;endArrow=block;labelBackgroundColor=none;fontFamily=Verdana;fontSize=12;edgeStyle=elbowEdgeStyle;elbow=vertical;" parent="Yc9LPZd54kfcNAisiiT4-1" source="Yc9LPZd54kfcNAisiiT4-3" target="Yc9LPZd54kfcNAisiiT4-7" edge="1">
          <mxGeometry relative="1" as="geometry">
            <mxPoint x="230" y="290.00333333333333" as="sourcePoint" />
            <mxPoint x="659" y="290.33333333333337" as="targetPoint" />
            <Array as="points">
              <mxPoint x="320" y="280" />
            </Array>
          </mxGeometry>
        </mxCell>
        <mxCell id="Yc9LPZd54kfcNAisiiT4-15" value="return" style="html=1;verticalAlign=bottom;endArrow=open;dashed=1;endSize=8;labelBackgroundColor=none;fontFamily=Verdana;fontSize=12;edgeStyle=elbowEdgeStyle;elbow=vertical;exitX=0.167;exitY=0.875;exitDx=0;exitDy=0;exitPerimeter=0;" parent="Yc9LPZd54kfcNAisiiT4-1" source="Yc9LPZd54kfcNAisiiT4-7" target="Yc9LPZd54kfcNAisiiT4-3" edge="1">
          <mxGeometry relative="1" as="geometry">
            <mxPoint x="240" y="400" as="targetPoint" />
            <Array as="points">
              <mxPoint x="320" y="400" />
              <mxPoint x="320" y="390" />
              <mxPoint x="350" y="390" />
            </Array>
            <mxPoint x="370" y="400" as="sourcePoint" />
          </mxGeometry>
        </mxCell>
        <mxCell id="Yc9LPZd54kfcNAisiiT4-16" value="ログファイル" style="shape=note2;boundedLbl=1;whiteSpace=wrap;html=1;size=14;verticalAlign=top;align=center;" parent="Yc9LPZd54kfcNAisiiT4-1" vertex="1">
          <mxGeometry x="260" y="330" width="100" height="50" as="geometry" />
        </mxCell>
        <mxCell id="S--X-GX8cK5yYy1NVmtk-2" value="ログイン" style="html=1;verticalAlign=bottom;endArrow=block;labelBackgroundColor=none;fontFamily=Verdana;fontSize=12;edgeStyle=elbowEdgeStyle;elbow=vertical;entryX=0;entryY=0.45;entryDx=0;entryDy=0;entryPerimeter=0;" edge="1" parent="Yc9LPZd54kfcNAisiiT4-1" source="Yc9LPZd54kfcNAisiiT4-9" target="S--X-GX8cK5yYy1NVmtk-1">
          <mxGeometry relative="1" as="geometry">
            <mxPoint x="100" y="200" as="sourcePoint" />
            <mxPoint x="250" y="200" as="targetPoint" />
            <Array as="points">
              <mxPoint x="160" y="189" />
              <mxPoint x="185" y="200" />
            </Array>
          </mxGeometry>
        </mxCell>
      </root>
    </mxGraphModel>
  </diagram>
  <diagram id="nB8A7hhR7iNcvrRYf5c8" name="ER図">
    <mxGraphModel dx="684" dy="537" grid="1" gridSize="10" guides="1" tooltips="1" connect="1" arrows="1" fold="1" page="1" pageScale="1" pageWidth="827" pageHeight="1169" math="0" shadow="0">
      <root>
        <mxCell id="xNdc0RXTt3TWQ51rv9bm-0" />
        <mxCell id="xNdc0RXTt3TWQ51rv9bm-1" parent="xNdc0RXTt3TWQ51rv9bm-0" />
        <mxCell id="xNdc0RXTt3TWQ51rv9bm-2" value="証明書テーブル" style="shape=table;startSize=30;container=1;collapsible=1;childLayout=tableLayout;fixedRows=1;rowLines=0;fontStyle=1;align=center;resizeLast=1;" parent="xNdc0RXTt3TWQ51rv9bm-1" vertex="1">
          <mxGeometry x="130" y="130" width="410" height="310" as="geometry" />
        </mxCell>
        <mxCell id="xNdc0RXTt3TWQ51rv9bm-3" value="" style="shape=partialRectangle;collapsible=0;dropTarget=0;pointerEvents=0;fillColor=none;points=[[0,0.5],[1,0.5]];portConstraint=eastwest;top=0;left=0;right=0;bottom=1;" parent="xNdc0RXTt3TWQ51rv9bm-2" vertex="1">
          <mxGeometry y="30" width="410" height="30" as="geometry" />
        </mxCell>
        <mxCell id="xNdc0RXTt3TWQ51rv9bm-4" value="PK" style="shape=partialRectangle;overflow=hidden;connectable=0;fillColor=none;top=0;left=0;bottom=0;right=0;fontStyle=1;" parent="xNdc0RXTt3TWQ51rv9bm-3" vertex="1">
          <mxGeometry width="30" height="30" as="geometry" />
        </mxCell>
        <mxCell id="xNdc0RXTt3TWQ51rv9bm-5" value="証明書シリアル番号" style="shape=partialRectangle;overflow=hidden;connectable=0;fillColor=none;top=0;left=0;bottom=0;right=0;align=left;spacingLeft=6;fontStyle=5;" parent="xNdc0RXTt3TWQ51rv9bm-3" vertex="1">
          <mxGeometry x="30" width="380" height="30" as="geometry" />
        </mxCell>
        <mxCell id="xNdc0RXTt3TWQ51rv9bm-6" value="" style="shape=partialRectangle;collapsible=0;dropTarget=0;pointerEvents=0;fillColor=none;points=[[0,0.5],[1,0.5]];portConstraint=eastwest;top=0;left=0;right=0;bottom=0;" parent="xNdc0RXTt3TWQ51rv9bm-2" vertex="1">
          <mxGeometry y="60" width="410" height="30" as="geometry" />
        </mxCell>
        <mxCell id="xNdc0RXTt3TWQ51rv9bm-7" value="FK" style="shape=partialRectangle;overflow=hidden;connectable=0;fillColor=none;top=0;left=0;bottom=0;right=0;" parent="xNdc0RXTt3TWQ51rv9bm-6" vertex="1">
          <mxGeometry width="30" height="30" as="geometry" />
        </mxCell>
        <mxCell id="xNdc0RXTt3TWQ51rv9bm-8" value="統合指定事業者番号" style="shape=partialRectangle;overflow=hidden;connectable=0;fillColor=none;top=0;left=0;bottom=0;right=0;align=left;spacingLeft=6;" parent="xNdc0RXTt3TWQ51rv9bm-6" vertex="1">
          <mxGeometry x="30" width="380" height="30" as="geometry" />
        </mxCell>
        <mxCell id="xNdc0RXTt3TWQ51rv9bm-9" value="" style="shape=partialRectangle;collapsible=0;dropTarget=0;pointerEvents=0;fillColor=none;points=[[0,0.5],[1,0.5]];portConstraint=eastwest;top=0;left=0;right=0;bottom=0;" parent="xNdc0RXTt3TWQ51rv9bm-2" vertex="1">
          <mxGeometry y="90" width="410" height="30" as="geometry" />
        </mxCell>
        <mxCell id="xNdc0RXTt3TWQ51rv9bm-10" value="" style="shape=partialRectangle;overflow=hidden;connectable=0;fillColor=none;top=0;left=0;bottom=0;right=0;" parent="xNdc0RXTt3TWQ51rv9bm-9" vertex="1">
          <mxGeometry width="30" height="30" as="geometry" />
        </mxCell>
        <mxCell id="xNdc0RXTt3TWQ51rv9bm-11" value="DNコモンネーム" style="shape=partialRectangle;overflow=hidden;connectable=0;fillColor=none;top=0;left=0;bottom=0;right=0;align=left;spacingLeft=6;" parent="xNdc0RXTt3TWQ51rv9bm-9" vertex="1">
          <mxGeometry x="30" width="380" height="30" as="geometry" />
        </mxCell>
        <mxCell id="S10ciwwF3dUFgWYTBpzD-15" style="shape=partialRectangle;collapsible=0;dropTarget=0;pointerEvents=0;fillColor=none;points=[[0,0.5],[1,0.5]];portConstraint=eastwest;top=0;left=0;right=0;bottom=0;" vertex="1" parent="xNdc0RXTt3TWQ51rv9bm-2">
          <mxGeometry y="120" width="410" height="30" as="geometry" />
        </mxCell>
        <mxCell id="S10ciwwF3dUFgWYTBpzD-16" style="shape=partialRectangle;overflow=hidden;connectable=0;fillColor=none;top=0;left=0;bottom=0;right=0;" vertex="1" parent="S10ciwwF3dUFgWYTBpzD-15">
          <mxGeometry width="30" height="30" as="geometry" />
        </mxCell>
        <mxCell id="S10ciwwF3dUFgWYTBpzD-17" value="DN組織名" style="shape=partialRectangle;overflow=hidden;connectable=0;fillColor=none;top=0;left=0;bottom=0;right=0;align=left;spacingLeft=6;" vertex="1" parent="S10ciwwF3dUFgWYTBpzD-15">
          <mxGeometry x="30" width="380" height="30" as="geometry" />
        </mxCell>
        <mxCell id="S10ciwwF3dUFgWYTBpzD-9" style="shape=partialRectangle;collapsible=0;dropTarget=0;pointerEvents=0;fillColor=none;points=[[0,0.5],[1,0.5]];portConstraint=eastwest;top=0;left=0;right=0;bottom=0;" vertex="1" parent="xNdc0RXTt3TWQ51rv9bm-2">
          <mxGeometry y="150" width="410" height="30" as="geometry" />
        </mxCell>
        <mxCell id="S10ciwwF3dUFgWYTBpzD-10" style="shape=partialRectangle;overflow=hidden;connectable=0;fillColor=none;top=0;left=0;bottom=0;right=0;" vertex="1" parent="S10ciwwF3dUFgWYTBpzD-9">
          <mxGeometry width="30" height="30" as="geometry" />
        </mxCell>
        <mxCell id="S10ciwwF3dUFgWYTBpzD-11" value="有効期間開始日時" style="shape=partialRectangle;overflow=hidden;connectable=0;fillColor=none;top=0;left=0;bottom=0;right=0;align=left;spacingLeft=6;" vertex="1" parent="S10ciwwF3dUFgWYTBpzD-9">
          <mxGeometry x="30" width="380" height="30" as="geometry" />
        </mxCell>
        <mxCell id="S10ciwwF3dUFgWYTBpzD-6" style="shape=partialRectangle;collapsible=0;dropTarget=0;pointerEvents=0;fillColor=none;points=[[0,0.5],[1,0.5]];portConstraint=eastwest;top=0;left=0;right=0;bottom=0;" vertex="1" parent="xNdc0RXTt3TWQ51rv9bm-2">
          <mxGeometry y="180" width="410" height="30" as="geometry" />
        </mxCell>
        <mxCell id="S10ciwwF3dUFgWYTBpzD-7" style="shape=partialRectangle;overflow=hidden;connectable=0;fillColor=none;top=0;left=0;bottom=0;right=0;" vertex="1" parent="S10ciwwF3dUFgWYTBpzD-6">
          <mxGeometry width="30" height="30" as="geometry" />
        </mxCell>
        <mxCell id="S10ciwwF3dUFgWYTBpzD-8" value="有効期間終了日時" style="shape=partialRectangle;overflow=hidden;connectable=0;fillColor=none;top=0;left=0;bottom=0;right=0;align=left;spacingLeft=6;" vertex="1" parent="S10ciwwF3dUFgWYTBpzD-6">
          <mxGeometry x="30" width="380" height="30" as="geometry" />
        </mxCell>
        <mxCell id="S10ciwwF3dUFgWYTBpzD-12" style="shape=partialRectangle;collapsible=0;dropTarget=0;pointerEvents=0;fillColor=none;points=[[0,0.5],[1,0.5]];portConstraint=eastwest;top=0;left=0;right=0;bottom=0;" vertex="1" parent="xNdc0RXTt3TWQ51rv9bm-2">
          <mxGeometry y="210" width="410" height="30" as="geometry" />
        </mxCell>
        <mxCell id="S10ciwwF3dUFgWYTBpzD-13" style="shape=partialRectangle;overflow=hidden;connectable=0;fillColor=none;top=0;left=0;bottom=0;right=0;" vertex="1" parent="S10ciwwF3dUFgWYTBpzD-12">
          <mxGeometry width="30" height="30" as="geometry" />
        </mxCell>
        <mxCell id="S10ciwwF3dUFgWYTBpzD-14" value="証明書種別　・・・G3, G4, G2以前, 他社" style="shape=partialRectangle;overflow=hidden;connectable=0;fillColor=none;top=0;left=0;bottom=0;right=0;align=left;spacingLeft=6;" vertex="1" parent="S10ciwwF3dUFgWYTBpzD-12">
          <mxGeometry x="30" width="380" height="30" as="geometry" />
        </mxCell>
        <mxCell id="S10ciwwF3dUFgWYTBpzD-22" style="shape=partialRectangle;collapsible=0;dropTarget=0;pointerEvents=0;fillColor=none;points=[[0,0.5],[1,0.5]];portConstraint=eastwest;top=0;left=0;right=0;bottom=0;" vertex="1" parent="xNdc0RXTt3TWQ51rv9bm-2">
          <mxGeometry y="240" width="410" height="30" as="geometry" />
        </mxCell>
        <mxCell id="S10ciwwF3dUFgWYTBpzD-23" style="shape=partialRectangle;overflow=hidden;connectable=0;fillColor=none;top=0;left=0;bottom=0;right=0;" vertex="1" parent="S10ciwwF3dUFgWYTBpzD-22">
          <mxGeometry width="30" height="30" as="geometry" />
        </mxCell>
        <mxCell id="S10ciwwF3dUFgWYTBpzD-24" value="ワイルドカードフラグ" style="shape=partialRectangle;overflow=hidden;connectable=0;fillColor=none;top=0;left=0;bottom=0;right=0;align=left;spacingLeft=6;" vertex="1" parent="S10ciwwF3dUFgWYTBpzD-22">
          <mxGeometry x="30" width="380" height="30" as="geometry" />
        </mxCell>
        <mxCell id="VoTuy1cHTN4wAMZRFpsM-3" style="shape=partialRectangle;collapsible=0;dropTarget=0;pointerEvents=0;fillColor=none;points=[[0,0.5],[1,0.5]];portConstraint=eastwest;top=0;left=0;right=0;bottom=0;" vertex="1" parent="xNdc0RXTt3TWQ51rv9bm-2">
          <mxGeometry y="270" width="410" height="30" as="geometry" />
        </mxCell>
        <mxCell id="VoTuy1cHTN4wAMZRFpsM-4" style="shape=partialRectangle;overflow=hidden;connectable=0;fillColor=none;top=0;left=0;bottom=0;right=0;" vertex="1" parent="VoTuy1cHTN4wAMZRFpsM-3">
          <mxGeometry width="30" height="30" as="geometry" />
        </mxCell>
        <mxCell id="VoTuy1cHTN4wAMZRFpsM-5" style="shape=partialRectangle;overflow=hidden;connectable=0;fillColor=none;top=0;left=0;bottom=0;right=0;align=left;spacingLeft=6;" vertex="1" parent="VoTuy1cHTN4wAMZRFpsM-3">
          <mxGeometry x="30" width="380" height="30" as="geometry" />
        </mxCell>
        <mxCell id="xNdc0RXTt3TWQ51rv9bm-19" value="&lt;font style=&quot;font-size: 16px&quot;&gt;証明書DB&lt;/font&gt;" style="text;html=1;strokeColor=none;fillColor=none;align=center;verticalAlign=middle;whiteSpace=wrap;rounded=0;" parent="xNdc0RXTt3TWQ51rv9bm-1" vertex="1">
          <mxGeometry x="70" y="20" width="95" height="20" as="geometry" />
        </mxCell>
        <mxCell id="CZ3C-mX2T2PzIuTbFp0X-0" value="指定事業者テーブル" style="shape=table;startSize=30;container=1;collapsible=1;childLayout=tableLayout;fixedRows=1;rowLines=0;fontStyle=1;align=center;resizeLast=1;" vertex="1" parent="xNdc0RXTt3TWQ51rv9bm-1">
          <mxGeometry x="130" y="500" width="410" height="170" as="geometry" />
        </mxCell>
        <mxCell id="CZ3C-mX2T2PzIuTbFp0X-1" value="" style="shape=partialRectangle;collapsible=0;dropTarget=0;pointerEvents=0;fillColor=none;points=[[0,0.5],[1,0.5]];portConstraint=eastwest;top=0;left=0;right=0;bottom=1;" vertex="1" parent="CZ3C-mX2T2PzIuTbFp0X-0">
          <mxGeometry y="30" width="410" height="30" as="geometry" />
        </mxCell>
        <mxCell id="CZ3C-mX2T2PzIuTbFp0X-2" value="PK" style="shape=partialRectangle;overflow=hidden;connectable=0;fillColor=none;top=0;left=0;bottom=0;right=0;fontStyle=1;" vertex="1" parent="CZ3C-mX2T2PzIuTbFp0X-1">
          <mxGeometry width="30" height="30" as="geometry" />
        </mxCell>
        <mxCell id="CZ3C-mX2T2PzIuTbFp0X-3" value="統合指定事業者番号（汎用+属性）" style="shape=partialRectangle;overflow=hidden;connectable=0;fillColor=none;top=0;left=0;bottom=0;right=0;align=left;spacingLeft=6;fontStyle=5;" vertex="1" parent="CZ3C-mX2T2PzIuTbFp0X-1">
          <mxGeometry x="30" width="380" height="30" as="geometry" />
        </mxCell>
        <mxCell id="CZ3C-mX2T2PzIuTbFp0X-4" value="" style="shape=partialRectangle;collapsible=0;dropTarget=0;pointerEvents=0;fillColor=none;points=[[0,0.5],[1,0.5]];portConstraint=eastwest;top=0;left=0;right=0;bottom=0;" vertex="1" parent="CZ3C-mX2T2PzIuTbFp0X-0">
          <mxGeometry y="60" width="410" height="30" as="geometry" />
        </mxCell>
        <mxCell id="CZ3C-mX2T2PzIuTbFp0X-5" value="" style="shape=partialRectangle;overflow=hidden;connectable=0;fillColor=none;top=0;left=0;bottom=0;right=0;" vertex="1" parent="CZ3C-mX2T2PzIuTbFp0X-4">
          <mxGeometry width="30" height="30" as="geometry" />
        </mxCell>
        <mxCell id="CZ3C-mX2T2PzIuTbFp0X-6" value="指定事業者名（O）" style="shape=partialRectangle;overflow=hidden;connectable=0;fillColor=none;top=0;left=0;bottom=0;right=0;align=left;spacingLeft=6;" vertex="1" parent="CZ3C-mX2T2PzIuTbFp0X-4">
          <mxGeometry x="30" width="380" height="30" as="geometry" />
        </mxCell>
        <mxCell id="VoTuy1cHTN4wAMZRFpsM-6" style="shape=partialRectangle;collapsible=0;dropTarget=0;pointerEvents=0;fillColor=none;points=[[0,0.5],[1,0.5]];portConstraint=eastwest;top=0;left=0;right=0;bottom=0;" vertex="1" parent="CZ3C-mX2T2PzIuTbFp0X-0">
          <mxGeometry y="90" width="410" height="30" as="geometry" />
        </mxCell>
        <mxCell id="VoTuy1cHTN4wAMZRFpsM-7" style="shape=partialRectangle;overflow=hidden;connectable=0;fillColor=none;top=0;left=0;bottom=0;right=0;" vertex="1" parent="VoTuy1cHTN4wAMZRFpsM-6">
          <mxGeometry width="30" height="30" as="geometry" />
        </mxCell>
        <mxCell id="VoTuy1cHTN4wAMZRFpsM-8" value="指定事業者CN" style="shape=partialRectangle;overflow=hidden;connectable=0;fillColor=none;top=0;left=0;bottom=0;right=0;align=left;spacingLeft=6;" vertex="1" parent="VoTuy1cHTN4wAMZRFpsM-6">
          <mxGeometry x="30" width="380" height="30" as="geometry" />
        </mxCell>
        <mxCell id="CZ3C-mX2T2PzIuTbFp0X-7" value="" style="shape=partialRectangle;collapsible=0;dropTarget=0;pointerEvents=0;fillColor=none;points=[[0,0.5],[1,0.5]];portConstraint=eastwest;top=0;left=0;right=0;bottom=0;" vertex="1" parent="CZ3C-mX2T2PzIuTbFp0X-0">
          <mxGeometry y="120" width="410" height="20" as="geometry" />
        </mxCell>
        <mxCell id="CZ3C-mX2T2PzIuTbFp0X-8" value="" style="shape=partialRectangle;overflow=hidden;connectable=0;fillColor=none;top=0;left=0;bottom=0;right=0;" vertex="1" parent="CZ3C-mX2T2PzIuTbFp0X-7">
          <mxGeometry width="30" height="20" as="geometry" />
        </mxCell>
        <mxCell id="CZ3C-mX2T2PzIuTbFp0X-9" value="" style="shape=partialRectangle;overflow=hidden;connectable=0;fillColor=none;top=0;left=0;bottom=0;right=0;align=left;spacingLeft=6;" vertex="1" parent="CZ3C-mX2T2PzIuTbFp0X-7">
          <mxGeometry x="30" width="380" height="20" as="geometry" />
        </mxCell>
        <mxCell id="tRMlBVedTwhgiJ49p7vl-0" style="edgeStyle=orthogonalEdgeStyle;rounded=0;jumpStyle=arc;orthogonalLoop=1;jettySize=auto;html=1;exitX=0;exitY=0.5;exitDx=0;exitDy=0;entryX=0;entryY=0.5;entryDx=0;entryDy=0;endArrow=none;endFill=0;" edge="1" parent="xNdc0RXTt3TWQ51rv9bm-1" source="xNdc0RXTt3TWQ51rv9bm-6" target="CZ3C-mX2T2PzIuTbFp0X-1">
          <mxGeometry relative="1" as="geometry" />
        </mxCell>
      </root>
    </mxGraphModel>
  </diagram>
  <diagram id="d06XfQ5YzdmS2I4Hj7Y6" name="ユースケース図">
    <mxGraphModel dx="684" dy="537" grid="1" gridSize="10" guides="1" tooltips="1" connect="1" arrows="1" fold="1" page="1" pageScale="1" pageWidth="827" pageHeight="1169" math="0" shadow="0">
      <root>
        <mxCell id="z-T4OEhkut_5lJJbPGwb-0" />
        <mxCell id="z-T4OEhkut_5lJJbPGwb-1" parent="z-T4OEhkut_5lJJbPGwb-0" />
        <mxCell id="M104QInt5ufLcqO0C05E-6" value="対話型シェル" style="shape=umlFrame;whiteSpace=wrap;html=1;width=170;height=30;" vertex="1" parent="z-T4OEhkut_5lJJbPGwb-1">
          <mxGeometry x="140" y="780" width="520" height="340" as="geometry" />
        </mxCell>
        <mxCell id="z-T4OEhkut_5lJJbPGwb-2" value="メール定期送信" style="shape=umlFrame;whiteSpace=wrap;html=1;width=170;height=30;" parent="z-T4OEhkut_5lJJbPGwb-1" vertex="1">
          <mxGeometry x="140" y="40" width="520" height="280" as="geometry" />
        </mxCell>
        <mxCell id="z-T4OEhkut_5lJJbPGwb-3" value="開発部" style="shape=umlActor;verticalLabelPosition=bottom;verticalAlign=top;html=1;" parent="z-T4OEhkut_5lJJbPGwb-1" vertex="1">
          <mxGeometry x="40" y="150" width="30" height="60" as="geometry" />
        </mxCell>
        <mxCell id="z-T4OEhkut_5lJJbPGwb-4" value="Webアプリ" style="shape=umlFrame;whiteSpace=wrap;html=1;width=170;height=30;" parent="z-T4OEhkut_5lJJbPGwb-1" vertex="1">
          <mxGeometry x="140" y="360" width="520" height="400" as="geometry" />
        </mxCell>
        <mxCell id="z-T4OEhkut_5lJJbPGwb-7" value="&lt;div&gt;定時実行され作成されたログをもとに&lt;/div&gt;&lt;div&gt;メールが送信される&lt;/div&gt;&lt;div&gt;（実行ログファイル・エラーログファイルの添付、統計情報など）&lt;br&gt;&lt;/div&gt;" style="ellipse;whiteSpace=wrap;html=1;" parent="z-T4OEhkut_5lJJbPGwb-1" vertex="1">
          <mxGeometry x="273" y="120" width="240" height="120" as="geometry" />
        </mxCell>
        <mxCell id="z-T4OEhkut_5lJJbPGwb-8" value="" style="endArrow=none;html=1;entryX=0;entryY=0.5;entryDx=0;entryDy=0;" parent="z-T4OEhkut_5lJJbPGwb-1" source="z-T4OEhkut_5lJJbPGwb-3" target="z-T4OEhkut_5lJJbPGwb-7" edge="1">
          <mxGeometry width="50" height="50" relative="1" as="geometry">
            <mxPoint x="340" y="280" as="sourcePoint" />
            <mxPoint x="390" y="230" as="targetPoint" />
          </mxGeometry>
        </mxCell>
        <mxCell id="M104QInt5ufLcqO0C05E-9" style="edgeStyle=orthogonalEdgeStyle;rounded=0;jumpStyle=arc;orthogonalLoop=1;jettySize=auto;html=1;entryX=1;entryY=0.5;entryDx=0;entryDy=0;endArrow=none;endFill=0;" edge="1" parent="z-T4OEhkut_5lJJbPGwb-1" source="z-T4OEhkut_5lJJbPGwb-9" target="M104QInt5ufLcqO0C05E-5">
          <mxGeometry relative="1" as="geometry" />
        </mxCell>
        <mxCell id="z-T4OEhkut_5lJJbPGwb-9" value="管理者" style="shape=umlActor;verticalLabelPosition=bottom;verticalAlign=top;html=1;" parent="z-T4OEhkut_5lJJbPGwb-1" vertex="1">
          <mxGeometry x="710" y="920" width="30" height="60" as="geometry" />
        </mxCell>
        <mxCell id="z-T4OEhkut_5lJJbPGwb-10" value="&lt;div&gt;対象時点の残存G3証明書を検索する&lt;br&gt;&lt;/div&gt;" style="ellipse;whiteSpace=wrap;html=1;" parent="z-T4OEhkut_5lJJbPGwb-1" vertex="1">
          <mxGeometry x="279.25" y="400" width="230.75" height="110" as="geometry" />
        </mxCell>
        <mxCell id="M104QInt5ufLcqO0C05E-0" value="&lt;div&gt;対象時点の統計情報&lt;/div&gt;&lt;div&gt;（残存数、指定事業者別残存数）&lt;/div&gt;&lt;div&gt;を検索する&lt;br&gt;&lt;/div&gt;" style="ellipse;whiteSpace=wrap;html=1;" vertex="1" parent="z-T4OEhkut_5lJJbPGwb-1">
          <mxGeometry x="280" y="520" width="230" height="110" as="geometry" />
        </mxCell>
        <mxCell id="M104QInt5ufLcqO0C05E-4" value="ユーザ" style="shape=umlActor;verticalLabelPosition=bottom;verticalAlign=top;html=1;" vertex="1" parent="z-T4OEhkut_5lJJbPGwb-1">
          <mxGeometry x="50" y="530" width="30" height="60" as="geometry" />
        </mxCell>
        <mxCell id="M104QInt5ufLcqO0C05E-5" value="&lt;div&gt;任意のタイミングにおけるG3証明書残存数&lt;/div&gt;&lt;div&gt;の検索&lt;/div&gt;" style="ellipse;whiteSpace=wrap;html=1;" vertex="1" parent="z-T4OEhkut_5lJJbPGwb-1">
          <mxGeometry x="273" y="890" width="241.5" height="120" as="geometry" />
        </mxCell>
        <mxCell id="M104QInt5ufLcqO0C05E-11" value="&lt;div&gt;最終日以降に最終日時点の&lt;/div&gt;&lt;div&gt;全数検索結果を検索する&lt;/div&gt;" style="ellipse;whiteSpace=wrap;html=1;" vertex="1" parent="z-T4OEhkut_5lJJbPGwb-1">
          <mxGeometry x="283" y="640" width="230" height="110" as="geometry" />
        </mxCell>
        <mxCell id="M104QInt5ufLcqO0C05E-18" value="" style="endArrow=none;html=1;entryX=0;entryY=0.5;entryDx=0;entryDy=0;" edge="1" parent="z-T4OEhkut_5lJJbPGwb-1" target="z-T4OEhkut_5lJJbPGwb-10">
          <mxGeometry width="50" height="50" relative="1" as="geometry">
            <mxPoint x="90" y="560" as="sourcePoint" />
            <mxPoint x="240" y="510" as="targetPoint" />
          </mxGeometry>
        </mxCell>
        <mxCell id="M104QInt5ufLcqO0C05E-19" value="" style="endArrow=none;html=1;entryX=0;entryY=0.5;entryDx=0;entryDy=0;" edge="1" parent="z-T4OEhkut_5lJJbPGwb-1" target="M104QInt5ufLcqO0C05E-0">
          <mxGeometry width="50" height="50" relative="1" as="geometry">
            <mxPoint x="90" y="560" as="sourcePoint" />
            <mxPoint x="340" y="640" as="targetPoint" />
          </mxGeometry>
        </mxCell>
        <mxCell id="M104QInt5ufLcqO0C05E-20" value="" style="endArrow=none;html=1;entryX=0;entryY=0.5;entryDx=0;entryDy=0;" edge="1" parent="z-T4OEhkut_5lJJbPGwb-1" target="M104QInt5ufLcqO0C05E-11">
          <mxGeometry width="50" height="50" relative="1" as="geometry">
            <mxPoint x="90" y="560" as="sourcePoint" />
            <mxPoint x="340" y="640" as="targetPoint" />
          </mxGeometry>
        </mxCell>
      </root>
    </mxGraphModel>
  </diagram>
  <diagram id="xMQuzadZgTbtWNMMuwl1" name="画面構成図">
    <mxGraphModel dx="684" dy="537" grid="1" gridSize="10" guides="1" tooltips="1" connect="1" arrows="1" fold="1" page="1" pageScale="1" pageWidth="827" pageHeight="1169" math="0" shadow="0">
      <root>
        <mxCell id="YtEUYzlKoqCMShlGBFVR-0" />
        <mxCell id="YtEUYzlKoqCMShlGBFVR-1" parent="YtEUYzlKoqCMShlGBFVR-0" />
        <mxCell id="YtEUYzlKoqCMShlGBFVR-2" value="&lt;div&gt;カレンダー選択&lt;/div&gt;&lt;div&gt;（デフォルトを最新日）&lt;/div&gt;" style="rounded=0;whiteSpace=wrap;html=1;" parent="YtEUYzlKoqCMShlGBFVR-1" vertex="1">
          <mxGeometry x="40" y="40" width="150" height="60" as="geometry" />
        </mxCell>
        <mxCell id="YtEUYzlKoqCMShlGBFVR-3" value="&lt;div&gt;指定事業者選択&lt;/div&gt;（ALLをデフォルト）" style="rounded=0;whiteSpace=wrap;html=1;" parent="YtEUYzlKoqCMShlGBFVR-1" vertex="1">
          <mxGeometry x="40" y="120" width="120" height="60" as="geometry" />
        </mxCell>
        <mxCell id="YtEUYzlKoqCMShlGBFVR-4" value="&lt;div&gt;tableで表示&lt;/div&gt;&lt;div&gt;CN、証明書タイプ、指定事業者、発行日、失効日&lt;br&gt;&lt;/div&gt;" style="rounded=0;whiteSpace=wrap;html=1;" parent="YtEUYzlKoqCMShlGBFVR-1" vertex="1">
          <mxGeometry x="40" y="330" width="430" height="420" as="geometry" />
        </mxCell>
        <mxCell id="YtEUYzlKoqCMShlGBFVR-5" value="統計情報" style="rounded=0;whiteSpace=wrap;html=1;" parent="YtEUYzlKoqCMShlGBFVR-1" vertex="1">
          <mxGeometry x="40" y="240" width="430" height="60" as="geometry" />
        </mxCell>
        <mxCell id="YtEUYzlKoqCMShlGBFVR-6" value="get" style="rounded=1;whiteSpace=wrap;html=1;" parent="YtEUYzlKoqCMShlGBFVR-1" vertex="1">
          <mxGeometry x="40" y="190" width="60" height="30" as="geometry" />
        </mxCell>
        <mxCell id="YtEUYzlKoqCMShlGBFVR-7" value="reset" style="rounded=1;whiteSpace=wrap;html=1;" parent="YtEUYzlKoqCMShlGBFVR-1" vertex="1">
          <mxGeometry x="120" y="190" width="60" height="30" as="geometry" />
        </mxCell>
      </root>
    </mxGraphModel>
  </diagram>
  <diagram id="IBcU2G9TVg5Ephww0j9S" name="システム概要図">
    <mxGraphModel dx="1208" dy="587" grid="1" gridSize="10" guides="1" tooltips="1" connect="1" arrows="1" fold="1" page="1" pageScale="1" pageWidth="827" pageHeight="1169" math="0" shadow="0">
      <root>
        <mxCell id="pGGhC-z__XLMcfg5fvzm-0" />
        <mxCell id="pGGhC-z__XLMcfg5fvzm-1" parent="pGGhC-z__XLMcfg5fvzm-0" />
        <mxCell id="pGGhC-z__XLMcfg5fvzm-3" value="&lt;div align=&quot;left&quot;&gt;I/F：　シェル、Web&lt;/div&gt;" style="text;html=1;strokeColor=none;fillColor=none;align=left;verticalAlign=middle;whiteSpace=wrap;rounded=0;" vertex="1" parent="pGGhC-z__XLMcfg5fvzm-1">
          <mxGeometry x="30" y="90" width="220" height="30" as="geometry" />
        </mxCell>
        <mxCell id="pGGhC-z__XLMcfg5fvzm-4" value="&lt;div align=&quot;left&quot;&gt;使用フレームワーク：　Spring boot （Java フレームワーク）&lt;/div&gt;" style="text;html=1;strokeColor=none;fillColor=none;align=left;verticalAlign=middle;whiteSpace=wrap;rounded=0;" vertex="1" parent="pGGhC-z__XLMcfg5fvzm-1">
          <mxGeometry x="30" y="120" width="390" height="30" as="geometry" />
        </mxCell>
        <mxCell id="pGGhC-z__XLMcfg5fvzm-5" value="&lt;div align=&quot;left&quot;&gt;&lt;font style=&quot;font-size: 18px&quot;&gt;【G3証明書残存件数確認サービス】　システム概要図&lt;/font&gt;&lt;/div&gt;" style="rounded=0;whiteSpace=wrap;html=1;align=left;" vertex="1" parent="pGGhC-z__XLMcfg5fvzm-1">
          <mxGeometry x="20" y="20" width="670" height="60" as="geometry" />
        </mxCell>
        <mxCell id="pGGhC-z__XLMcfg5fvzm-6" value="&lt;font style=&quot;font-size: 14px&quot;&gt;作成日：2020/12/14&lt;/font&gt;" style="rounded=0;whiteSpace=wrap;html=1;" vertex="1" parent="pGGhC-z__XLMcfg5fvzm-1">
          <mxGeometry x="690" y="20" width="150" height="60" as="geometry" />
        </mxCell>
        <mxCell id="pGGhC-z__XLMcfg5fvzm-7" value="&lt;font style=&quot;font-size: 14px&quot;&gt;作成者：淺野　稜&lt;/font&gt;" style="rounded=0;whiteSpace=wrap;html=1;" vertex="1" parent="pGGhC-z__XLMcfg5fvzm-1">
          <mxGeometry x="840" y="20" width="150" height="60" as="geometry" />
        </mxCell>
        <mxCell id="pGGhC-z__XLMcfg5fvzm-8" value="&lt;font style=&quot;font-size: 14px&quot;&gt;Ver 1.0&lt;/font&gt;" style="rounded=0;whiteSpace=wrap;html=1;" vertex="1" parent="pGGhC-z__XLMcfg5fvzm-1">
          <mxGeometry x="990" y="20" width="130" height="60" as="geometry" />
        </mxCell>
        <mxCell id="7cvwx3Lbqf1EfOnwhH9n-0" value="&lt;div align=&quot;left&quot;&gt;使用言語：　Java(JDK 11)&lt;/div&gt;" style="text;html=1;strokeColor=none;fillColor=none;align=left;verticalAlign=middle;whiteSpace=wrap;rounded=0;" vertex="1" parent="pGGhC-z__XLMcfg5fvzm-1">
          <mxGeometry x="30" y="150" width="170" height="30" as="geometry" />
        </mxCell>
        <mxCell id="7cvwx3Lbqf1EfOnwhH9n-1" value="&lt;div align=&quot;left&quot;&gt;RDBMS：　PostgreSQL&lt;/div&gt;" style="text;html=1;strokeColor=none;fillColor=none;align=left;verticalAlign=middle;whiteSpace=wrap;rounded=0;" vertex="1" parent="pGGhC-z__XLMcfg5fvzm-1">
          <mxGeometry x="30" y="180" width="140" height="30" as="geometry" />
        </mxCell>
        <mxCell id="71X-WY3FRYvKyB98aYcZ-0" style="edgeStyle=orthogonalEdgeStyle;rounded=0;jumpStyle=arc;orthogonalLoop=1;jettySize=auto;html=1;entryX=0;entryY=0.5;entryDx=0;entryDy=0;endArrow=none;endFill=0;" edge="1" parent="pGGhC-z__XLMcfg5fvzm-1" source="7cvwx3Lbqf1EfOnwhH9n-2" target="7cvwx3Lbqf1EfOnwhH9n-53">
          <mxGeometry relative="1" as="geometry" />
        </mxCell>
        <mxCell id="7cvwx3Lbqf1EfOnwhH9n-2" value="認証管理" style="rounded=0;whiteSpace=wrap;html=1;" vertex="1" parent="pGGhC-z__XLMcfg5fvzm-1">
          <mxGeometry x="30" y="1200" width="120" height="60" as="geometry" />
        </mxCell>
        <mxCell id="ljKvz7R1VZTbYrcuCCBu-35" style="edgeStyle=orthogonalEdgeStyle;rounded=0;jumpStyle=arc;orthogonalLoop=1;jettySize=auto;html=1;exitX=0.5;exitY=1;exitDx=0;exitDy=0;entryX=0;entryY=0.5;entryDx=0;entryDy=0;endArrow=none;endFill=0;" edge="1" parent="pGGhC-z__XLMcfg5fvzm-1" source="7cvwx3Lbqf1EfOnwhH9n-4" target="7cvwx3Lbqf1EfOnwhH9n-22">
          <mxGeometry relative="1" as="geometry" />
        </mxCell>
        <mxCell id="7cvwx3Lbqf1EfOnwhH9n-4" value="証明書検証" style="rounded=0;whiteSpace=wrap;html=1;" vertex="1" parent="pGGhC-z__XLMcfg5fvzm-1">
          <mxGeometry x="279.5" y="280" width="120" height="60" as="geometry" />
        </mxCell>
        <mxCell id="7cvwx3Lbqf1EfOnwhH9n-9" value="" style="rounded=0;whiteSpace=wrap;html=1;align=left;" vertex="1" parent="pGGhC-z__XLMcfg5fvzm-1">
          <mxGeometry x="960" y="120" width="150" height="420" as="geometry" />
        </mxCell>
        <mxCell id="7cvwx3Lbqf1EfOnwhH9n-10" value="共通処理" style="rounded=0;whiteSpace=wrap;html=1;" vertex="1" parent="pGGhC-z__XLMcfg5fvzm-1">
          <mxGeometry x="971" y="245" width="120" height="60" as="geometry" />
        </mxCell>
        <mxCell id="7cvwx3Lbqf1EfOnwhH9n-12" value="画面" style="shape=hexagon;perimeter=hexagonPerimeter2;whiteSpace=wrap;html=1;fixedSize=1;" vertex="1" parent="pGGhC-z__XLMcfg5fvzm-1">
          <mxGeometry x="971" y="330" width="120" height="80" as="geometry" />
        </mxCell>
        <mxCell id="7cvwx3Lbqf1EfOnwhH9n-13" value="ファイル" style="shape=note;whiteSpace=wrap;html=1;backgroundOutline=1;darkOpacity=0.05;" vertex="1" parent="pGGhC-z__XLMcfg5fvzm-1">
          <mxGeometry x="991" y="425" width="80" height="100" as="geometry" />
        </mxCell>
        <mxCell id="7cvwx3Lbqf1EfOnwhH9n-16" value="テーブル" style="shape=datastore;whiteSpace=wrap;html=1;" vertex="1" parent="pGGhC-z__XLMcfg5fvzm-1">
          <mxGeometry x="981" y="155" width="100" height="80" as="geometry" />
        </mxCell>
        <mxCell id="7cvwx3Lbqf1EfOnwhH9n-18" value="&lt;div align=&quot;left&quot;&gt;定期実行：　@Scheduled, YAMLを利用（Spring boot）&lt;/div&gt;" style="text;html=1;strokeColor=none;fillColor=none;align=left;verticalAlign=middle;whiteSpace=wrap;rounded=0;" vertex="1" parent="pGGhC-z__XLMcfg5fvzm-1">
          <mxGeometry x="30" y="210" width="310" height="30" as="geometry" />
        </mxCell>
        <mxCell id="7cvwx3Lbqf1EfOnwhH9n-19" value="&lt;div align=&quot;left&quot;&gt;IDE：　Eclipse 2020-08&amp;nbsp; Maven 3.0 （使用ライブラリはpom.xmlに記載）&lt;/div&gt;" style="text;html=1;strokeColor=none;fillColor=none;align=left;verticalAlign=middle;whiteSpace=wrap;rounded=0;" vertex="1" parent="pGGhC-z__XLMcfg5fvzm-1">
          <mxGeometry x="430" y="90" width="430" height="30" as="geometry" />
        </mxCell>
        <mxCell id="7cvwx3Lbqf1EfOnwhH9n-20" value="使用Webサーバ：　Tomcat 9" style="text;html=1;strokeColor=none;fillColor=none;align=left;verticalAlign=middle;whiteSpace=wrap;rounded=0;" vertex="1" parent="pGGhC-z__XLMcfg5fvzm-1">
          <mxGeometry x="430" y="150" width="180" height="30" as="geometry" />
        </mxCell>
        <mxCell id="7cvwx3Lbqf1EfOnwhH9n-21" value="凡例" style="text;html=1;strokeColor=none;fillColor=none;align=center;verticalAlign=middle;whiteSpace=wrap;rounded=0;" vertex="1" parent="pGGhC-z__XLMcfg5fvzm-1">
          <mxGeometry x="971" y="130" width="40" height="20" as="geometry" />
        </mxCell>
        <mxCell id="7cvwx3Lbqf1EfOnwhH9n-22" value="証明書&lt;br&gt;&lt;div&gt;テーブル&lt;/div&gt;" style="shape=datastore;whiteSpace=wrap;html=1;" vertex="1" parent="pGGhC-z__XLMcfg5fvzm-1">
          <mxGeometry x="439" y="340" width="106" height="80" as="geometry" />
        </mxCell>
        <mxCell id="7cvwx3Lbqf1EfOnwhH9n-25" value="&lt;div&gt;&lt;br&gt;&lt;/div&gt;&lt;div&gt;error.sslcert-G3.log.yyyy-MM-dd&lt;/div&gt;&lt;div&gt;ログファイル&lt;/div&gt;" style="shape=note;whiteSpace=wrap;html=1;backgroundOutline=1;darkOpacity=0.05;" vertex="1" parent="pGGhC-z__XLMcfg5fvzm-1">
          <mxGeometry x="649" y="450" width="80" height="100" as="geometry" />
        </mxCell>
        <mxCell id="ljKvz7R1VZTbYrcuCCBu-8" style="edgeStyle=orthogonalEdgeStyle;rounded=0;jumpStyle=arc;orthogonalLoop=1;jettySize=auto;html=1;exitX=1;exitY=0.5;exitDx=0;exitDy=0;entryX=0;entryY=0.5;entryDx=0;entryDy=0;entryPerimeter=0;endArrow=none;endFill=0;" edge="1" parent="pGGhC-z__XLMcfg5fvzm-1" source="7cvwx3Lbqf1EfOnwhH9n-30" target="7cvwx3Lbqf1EfOnwhH9n-25">
          <mxGeometry relative="1" as="geometry" />
        </mxCell>
        <mxCell id="ljKvz7R1VZTbYrcuCCBu-9" style="edgeStyle=orthogonalEdgeStyle;rounded=0;jumpStyle=arc;orthogonalLoop=1;jettySize=auto;html=1;exitX=1;exitY=0.5;exitDx=0;exitDy=0;entryX=0;entryY=0.5;entryDx=0;entryDy=0;entryPerimeter=0;endArrow=none;endFill=0;" edge="1" parent="pGGhC-z__XLMcfg5fvzm-1" source="7cvwx3Lbqf1EfOnwhH9n-30" target="7cvwx3Lbqf1EfOnwhH9n-31">
          <mxGeometry relative="1" as="geometry">
            <Array as="points">
              <mxPoint x="579" y="500" />
              <mxPoint x="579" y="633" />
            </Array>
          </mxGeometry>
        </mxCell>
        <mxCell id="7cvwx3Lbqf1EfOnwhH9n-30" value="ログ出力" style="rounded=0;whiteSpace=wrap;html=1;" vertex="1" parent="pGGhC-z__XLMcfg5fvzm-1">
          <mxGeometry x="279" y="470" width="120" height="60" as="geometry" />
        </mxCell>
        <mxCell id="7cvwx3Lbqf1EfOnwhH9n-31" value="&lt;div&gt;&lt;br&gt;&lt;/div&gt;&lt;div&gt;sslcert-G3.log.yyyy-MM-dd&lt;/div&gt;&lt;div&gt;ログファイル&lt;/div&gt;" style="shape=note;whiteSpace=wrap;html=1;backgroundOutline=1;darkOpacity=0.05;" vertex="1" parent="pGGhC-z__XLMcfg5fvzm-1">
          <mxGeometry x="649" y="560" width="77" height="100" as="geometry" />
        </mxCell>
        <mxCell id="7cvwx3Lbqf1EfOnwhH9n-46" style="edgeStyle=orthogonalEdgeStyle;rounded=0;orthogonalLoop=1;jettySize=auto;html=1;exitX=1;exitY=0.5;exitDx=0;exitDy=0;entryX=0;entryY=0.5;entryDx=0;entryDy=0;endArrow=none;endFill=0;" edge="1" parent="pGGhC-z__XLMcfg5fvzm-1" source="7cvwx3Lbqf1EfOnwhH9n-37" target="7cvwx3Lbqf1EfOnwhH9n-4">
          <mxGeometry relative="1" as="geometry" />
        </mxCell>
        <mxCell id="ljKvz7R1VZTbYrcuCCBu-4" style="edgeStyle=orthogonalEdgeStyle;rounded=0;jumpStyle=arc;orthogonalLoop=1;jettySize=auto;html=1;exitX=1;exitY=0.5;exitDx=0;exitDy=0;entryX=0;entryY=0.5;entryDx=0;entryDy=0;endArrow=none;endFill=0;" edge="1" parent="pGGhC-z__XLMcfg5fvzm-1" source="7cvwx3Lbqf1EfOnwhH9n-37" target="7cvwx3Lbqf1EfOnwhH9n-30">
          <mxGeometry relative="1" as="geometry" />
        </mxCell>
        <mxCell id="ljKvz7R1VZTbYrcuCCBu-36" style="edgeStyle=orthogonalEdgeStyle;rounded=0;jumpStyle=arc;orthogonalLoop=1;jettySize=auto;html=1;entryX=0;entryY=0.5;entryDx=0;entryDy=0;endArrow=none;endFill=0;" edge="1" parent="pGGhC-z__XLMcfg5fvzm-1" source="7cvwx3Lbqf1EfOnwhH9n-37" target="ljKvz7R1VZTbYrcuCCBu-11">
          <mxGeometry relative="1" as="geometry" />
        </mxCell>
        <mxCell id="7cvwx3Lbqf1EfOnwhH9n-37" value="定期実行" style="rounded=0;whiteSpace=wrap;html=1;" vertex="1" parent="pGGhC-z__XLMcfg5fvzm-1">
          <mxGeometry x="30" y="280" width="120" height="60" as="geometry" />
        </mxCell>
        <mxCell id="7cvwx3Lbqf1EfOnwhH9n-82" style="edgeStyle=orthogonalEdgeStyle;rounded=0;orthogonalLoop=1;jettySize=auto;html=1;exitX=1;exitY=0.5;exitDx=0;exitDy=0;entryX=0;entryY=0.5;entryDx=0;entryDy=0;endArrow=none;endFill=0;" edge="1" parent="pGGhC-z__XLMcfg5fvzm-1" source="7cvwx3Lbqf1EfOnwhH9n-53" target="7cvwx3Lbqf1EfOnwhH9n-56">
          <mxGeometry relative="1" as="geometry" />
        </mxCell>
        <mxCell id="7cvwx3Lbqf1EfOnwhH9n-53" value="Web I/F" style="shape=hexagon;perimeter=hexagonPerimeter2;whiteSpace=wrap;html=1;fixedSize=1;" vertex="1" parent="pGGhC-z__XLMcfg5fvzm-1">
          <mxGeometry x="185.5" y="1190" width="120" height="80" as="geometry" />
        </mxCell>
        <mxCell id="7cvwx3Lbqf1EfOnwhH9n-88" style="edgeStyle=orthogonalEdgeStyle;rounded=0;orthogonalLoop=1;jettySize=auto;html=1;exitX=1;exitY=0.5;exitDx=0;exitDy=0;entryX=0;entryY=0.5;entryDx=0;entryDy=0;endArrow=none;endFill=0;" edge="1" parent="pGGhC-z__XLMcfg5fvzm-1" source="7cvwx3Lbqf1EfOnwhH9n-56" target="7cvwx3Lbqf1EfOnwhH9n-87">
          <mxGeometry relative="1" as="geometry" />
        </mxCell>
        <mxCell id="7cvwx3Lbqf1EfOnwhH9n-56" value="&lt;div&gt;ログ取得&lt;/div&gt;" style="rounded=0;whiteSpace=wrap;html=1;" vertex="1" parent="pGGhC-z__XLMcfg5fvzm-1">
          <mxGeometry x="335.5" y="1200" width="120" height="60" as="geometry" />
        </mxCell>
        <mxCell id="7cvwx3Lbqf1EfOnwhH9n-86" value="※最終日のみ全数検査が行われる" style="text;html=1;strokeColor=none;fillColor=none;align=center;verticalAlign=middle;whiteSpace=wrap;rounded=0;" vertex="1" parent="pGGhC-z__XLMcfg5fvzm-1">
          <mxGeometry x="259" y="440" width="200" height="20" as="geometry" />
        </mxCell>
        <mxCell id="7cvwx3Lbqf1EfOnwhH9n-87" value="対象ログ表示" style="shape=hexagon;perimeter=hexagonPerimeter2;whiteSpace=wrap;html=1;fixedSize=1;" vertex="1" parent="pGGhC-z__XLMcfg5fvzm-1">
          <mxGeometry x="660" y="1190" width="120" height="80" as="geometry" />
        </mxCell>
        <mxCell id="7cvwx3Lbqf1EfOnwhH9n-92" value="" style="group" vertex="1" connectable="0" parent="pGGhC-z__XLMcfg5fvzm-1">
          <mxGeometry x="626" y="720" width="123" height="70" as="geometry" />
        </mxCell>
        <mxCell id="7cvwx3Lbqf1EfOnwhH9n-23" value="" style="shape=message;html=1;whiteSpace=wrap;html=1;outlineConnect=0;" vertex="1" parent="7cvwx3Lbqf1EfOnwhH9n-92">
          <mxGeometry x="31.5" width="60" height="40" as="geometry" />
        </mxCell>
        <mxCell id="7cvwx3Lbqf1EfOnwhH9n-24" value="開発部宛てメール" style="text;html=1;strokeColor=none;fillColor=none;align=center;verticalAlign=middle;whiteSpace=wrap;rounded=0;" vertex="1" parent="7cvwx3Lbqf1EfOnwhH9n-92">
          <mxGeometry y="40" width="123" height="30" as="geometry" />
        </mxCell>
        <mxCell id="_V4e5lifCGcVykNsfX3e-0" value="使用OS：　CentOS 8" style="text;html=1;strokeColor=none;fillColor=none;align=left;verticalAlign=middle;whiteSpace=wrap;rounded=0;" vertex="1" parent="pGGhC-z__XLMcfg5fvzm-1">
          <mxGeometry x="430" y="120" width="150" height="30" as="geometry" />
        </mxCell>
        <mxCell id="gk1Mtsq4Fbnxz0TIp-Gb-0" value="&lt;div align=&quot;left&quot;&gt;ログファイル保存先：　/logs/G3sslcert/　？&lt;/div&gt;" style="text;html=1;strokeColor=none;fillColor=none;align=left;verticalAlign=middle;whiteSpace=wrap;rounded=0;shadow=1;" vertex="1" parent="pGGhC-z__XLMcfg5fvzm-1">
          <mxGeometry x="430" y="180" width="260" height="20" as="geometry" />
        </mxCell>
        <mxCell id="FwSPwUntONfFPdfDs6vA-0" value="&lt;div align=&quot;left&quot;&gt;WEBUI URL：　？&lt;/div&gt;" style="text;html=1;strokeColor=none;fillColor=none;align=left;verticalAlign=middle;whiteSpace=wrap;rounded=0;shadow=1;" vertex="1" parent="pGGhC-z__XLMcfg5fvzm-1">
          <mxGeometry x="430" y="210" width="260" height="20" as="geometry" />
        </mxCell>
        <mxCell id="ljKvz7R1VZTbYrcuCCBu-15" style="edgeStyle=orthogonalEdgeStyle;rounded=0;jumpStyle=arc;orthogonalLoop=1;jettySize=auto;html=1;exitX=1;exitY=0.5;exitDx=0;exitDy=0;endArrow=none;endFill=0;" edge="1" parent="pGGhC-z__XLMcfg5fvzm-1" source="ljKvz7R1VZTbYrcuCCBu-11" target="7cvwx3Lbqf1EfOnwhH9n-23">
          <mxGeometry relative="1" as="geometry" />
        </mxCell>
        <mxCell id="ljKvz7R1VZTbYrcuCCBu-45" style="edgeStyle=orthogonalEdgeStyle;rounded=0;jumpStyle=arc;orthogonalLoop=1;jettySize=auto;html=1;exitX=0.5;exitY=1;exitDx=0;exitDy=0;entryX=0;entryY=0.5;entryDx=0;entryDy=0;endArrow=none;endFill=0;" edge="1" parent="pGGhC-z__XLMcfg5fvzm-1" source="ljKvz7R1VZTbYrcuCCBu-11" target="ljKvz7R1VZTbYrcuCCBu-12">
          <mxGeometry relative="1" as="geometry" />
        </mxCell>
        <mxCell id="ljKvz7R1VZTbYrcuCCBu-46" style="edgeStyle=orthogonalEdgeStyle;rounded=0;jumpStyle=arc;orthogonalLoop=1;jettySize=auto;html=1;exitX=0.5;exitY=1;exitDx=0;exitDy=0;entryX=0;entryY=0.5;entryDx=0;entryDy=0;entryPerimeter=0;endArrow=none;endFill=0;" edge="1" parent="pGGhC-z__XLMcfg5fvzm-1" source="ljKvz7R1VZTbYrcuCCBu-11" target="ljKvz7R1VZTbYrcuCCBu-40">
          <mxGeometry relative="1" as="geometry" />
        </mxCell>
        <mxCell id="ljKvz7R1VZTbYrcuCCBu-47" style="edgeStyle=orthogonalEdgeStyle;rounded=0;jumpStyle=arc;orthogonalLoop=1;jettySize=auto;html=1;exitX=0.5;exitY=1;exitDx=0;exitDy=0;entryX=0;entryY=0.5;entryDx=0;entryDy=0;entryPerimeter=0;endArrow=none;endFill=0;" edge="1" parent="pGGhC-z__XLMcfg5fvzm-1" source="ljKvz7R1VZTbYrcuCCBu-11" target="ljKvz7R1VZTbYrcuCCBu-39">
          <mxGeometry relative="1" as="geometry" />
        </mxCell>
        <mxCell id="ljKvz7R1VZTbYrcuCCBu-11" value="メール送信" style="rounded=0;whiteSpace=wrap;html=1;shadow=0;strokeColor=#000000;" vertex="1" parent="pGGhC-z__XLMcfg5fvzm-1">
          <mxGeometry x="279" y="710" width="120" height="60" as="geometry" />
        </mxCell>
        <mxCell id="ljKvz7R1VZTbYrcuCCBu-48" style="edgeStyle=orthogonalEdgeStyle;rounded=0;jumpStyle=arc;orthogonalLoop=1;jettySize=auto;html=1;entryX=0.5;entryY=1;entryDx=0;entryDy=0;endArrow=none;endFill=0;" edge="1" parent="pGGhC-z__XLMcfg5fvzm-1" source="ljKvz7R1VZTbYrcuCCBu-12" target="7cvwx3Lbqf1EfOnwhH9n-24">
          <mxGeometry relative="1" as="geometry" />
        </mxCell>
        <mxCell id="ljKvz7R1VZTbYrcuCCBu-12" value="統計情報" style="rounded=0;whiteSpace=wrap;html=1;shadow=0;strokeColor=#000000;" vertex="1" parent="pGGhC-z__XLMcfg5fvzm-1">
          <mxGeometry x="430" y="790" width="120" height="60" as="geometry" />
        </mxCell>
        <mxCell id="ljKvz7R1VZTbYrcuCCBu-34" style="edgeStyle=orthogonalEdgeStyle;rounded=0;jumpStyle=arc;orthogonalLoop=1;jettySize=auto;html=1;entryX=0.5;entryY=1;entryDx=0;entryDy=0;endArrow=none;endFill=0;" edge="1" parent="pGGhC-z__XLMcfg5fvzm-1" source="ljKvz7R1VZTbYrcuCCBu-33" target="7cvwx3Lbqf1EfOnwhH9n-30">
          <mxGeometry relative="1" as="geometry" />
        </mxCell>
        <mxCell id="ljKvz7R1VZTbYrcuCCBu-33" value="証明書&lt;br&gt;&lt;div&gt;テーブル&lt;/div&gt;" style="shape=datastore;whiteSpace=wrap;html=1;" vertex="1" parent="pGGhC-z__XLMcfg5fvzm-1">
          <mxGeometry x="438" y="560" width="106" height="80" as="geometry" />
        </mxCell>
        <mxCell id="ljKvz7R1VZTbYrcuCCBu-38" style="edgeStyle=orthogonalEdgeStyle;rounded=0;jumpStyle=arc;orthogonalLoop=1;jettySize=auto;html=1;entryX=0.5;entryY=1;entryDx=0;entryDy=0;endArrow=none;endFill=0;" edge="1" parent="pGGhC-z__XLMcfg5fvzm-1" source="ljKvz7R1VZTbYrcuCCBu-37" target="ljKvz7R1VZTbYrcuCCBu-12">
          <mxGeometry relative="1" as="geometry" />
        </mxCell>
        <mxCell id="ljKvz7R1VZTbYrcuCCBu-37" value="証明書&lt;br&gt;&lt;div&gt;テーブル&lt;/div&gt;" style="shape=datastore;whiteSpace=wrap;html=1;" vertex="1" parent="pGGhC-z__XLMcfg5fvzm-1">
          <mxGeometry x="437" y="870" width="106" height="80" as="geometry" />
        </mxCell>
        <mxCell id="ljKvz7R1VZTbYrcuCCBu-43" style="edgeStyle=orthogonalEdgeStyle;rounded=0;jumpStyle=arc;orthogonalLoop=1;jettySize=auto;html=1;entryX=0.5;entryY=1;entryDx=0;entryDy=0;endArrow=none;endFill=0;" edge="1" parent="pGGhC-z__XLMcfg5fvzm-1" source="ljKvz7R1VZTbYrcuCCBu-39" target="7cvwx3Lbqf1EfOnwhH9n-24">
          <mxGeometry relative="1" as="geometry" />
        </mxCell>
        <mxCell id="ljKvz7R1VZTbYrcuCCBu-39" value="&lt;div&gt;&lt;br&gt;&lt;/div&gt;&lt;div&gt;error.sslcert-G3.log.yyyy-MM-dd&lt;/div&gt;&lt;div&gt;ログファイル&lt;/div&gt;" style="shape=note;whiteSpace=wrap;html=1;backgroundOutline=1;darkOpacity=0.05;" vertex="1" parent="pGGhC-z__XLMcfg5fvzm-1">
          <mxGeometry x="450" y="960" width="80" height="100" as="geometry" />
        </mxCell>
        <mxCell id="ljKvz7R1VZTbYrcuCCBu-44" style="edgeStyle=orthogonalEdgeStyle;rounded=0;jumpStyle=arc;orthogonalLoop=1;jettySize=auto;html=1;endArrow=none;endFill=0;" edge="1" parent="pGGhC-z__XLMcfg5fvzm-1" source="ljKvz7R1VZTbYrcuCCBu-40" target="7cvwx3Lbqf1EfOnwhH9n-24">
          <mxGeometry relative="1" as="geometry" />
        </mxCell>
        <mxCell id="ljKvz7R1VZTbYrcuCCBu-40" value="&lt;div&gt;&lt;br&gt;&lt;/div&gt;&lt;div&gt;sslcert-G3.log.yyyy-MM-dd&lt;/div&gt;&lt;div&gt;ログファイル&lt;/div&gt;" style="shape=note;whiteSpace=wrap;html=1;backgroundOutline=1;darkOpacity=0.05;" vertex="1" parent="pGGhC-z__XLMcfg5fvzm-1">
          <mxGeometry x="450" y="1070" width="77" height="100" as="geometry" />
        </mxCell>
        <mxCell id="ljKvz7R1VZTbYrcuCCBu-49" value="証明書情報の取得とテーブルの更新" style="text;html=1;strokeColor=none;fillColor=none;align=center;verticalAlign=middle;whiteSpace=wrap;rounded=0;shadow=0;" vertex="1" parent="pGGhC-z__XLMcfg5fvzm-1">
          <mxGeometry x="320" y="260" width="210" height="20" as="geometry" />
        </mxCell>
        <mxCell id="ljKvz7R1VZTbYrcuCCBu-53" style="edgeStyle=orthogonalEdgeStyle;rounded=0;jumpStyle=arc;orthogonalLoop=1;jettySize=auto;html=1;exitX=0;exitY=0.5;exitDx=0;exitDy=0;exitPerimeter=0;endArrow=none;endFill=0;" edge="1" parent="pGGhC-z__XLMcfg5fvzm-1" source="ljKvz7R1VZTbYrcuCCBu-50" target="7cvwx3Lbqf1EfOnwhH9n-56">
          <mxGeometry relative="1" as="geometry" />
        </mxCell>
        <mxCell id="ljKvz7R1VZTbYrcuCCBu-50" value="&lt;div&gt;&lt;br&gt;&lt;/div&gt;&lt;div&gt;error.sslcert-G3.log.yyyy-MM-dd&lt;/div&gt;&lt;div&gt;ログファイル&lt;/div&gt;" style="shape=note;whiteSpace=wrap;html=1;backgroundOutline=1;darkOpacity=0.05;" vertex="1" parent="pGGhC-z__XLMcfg5fvzm-1">
          <mxGeometry x="450" y="1290" width="80" height="100" as="geometry" />
        </mxCell>
        <mxCell id="ljKvz7R1VZTbYrcuCCBu-54" style="edgeStyle=orthogonalEdgeStyle;rounded=0;jumpStyle=arc;orthogonalLoop=1;jettySize=auto;html=1;exitX=0;exitY=0.5;exitDx=0;exitDy=0;exitPerimeter=0;entryX=0.5;entryY=1;entryDx=0;entryDy=0;endArrow=none;endFill=0;" edge="1" parent="pGGhC-z__XLMcfg5fvzm-1" source="ljKvz7R1VZTbYrcuCCBu-51" target="7cvwx3Lbqf1EfOnwhH9n-56">
          <mxGeometry relative="1" as="geometry" />
        </mxCell>
        <mxCell id="ljKvz7R1VZTbYrcuCCBu-51" value="&lt;div&gt;&lt;br&gt;&lt;/div&gt;&lt;div&gt;sslcert-G3.log.yyyy-MM-dd&lt;/div&gt;&lt;div&gt;ログファイル&lt;/div&gt;" style="shape=note;whiteSpace=wrap;html=1;backgroundOutline=1;darkOpacity=0.05;" vertex="1" parent="pGGhC-z__XLMcfg5fvzm-1">
          <mxGeometry x="450" y="1400" width="77" height="100" as="geometry" />
        </mxCell>
      </root>
    </mxGraphModel>
  </diagram>
</mxfile>
